<?xml version="1.0" encoding="UTF-8" standalone="no"?>
<svg version="1.1" xmlns="http://www.w3.org/2000/svg" xmlns:xlink="http://www.w3.org/1999/xlink" width="281.6" height="50.56">
	<path id="dp_path001" transform="matrix(1,0,0,1,-207.813,-446.635)" fill="#8acb5e" fill-rule="evenodd" stroke="none" stroke-width="0" d="M 208.48,447.301 L 488.776,447.301 L 488.776,496.36 L 208.48,496.36 Z "/>
	<g id="dp_dp002" transform="matrix(1,0,0,1,11.248,34.4507)">
		<path id="dp_path003" fill="white" fill-rule="evenodd" stroke="none" stroke-width="0" d="M 1.76267,-15.284 L 5.23333,-15.284 L 5.23333,0 L 1.76267,0 Z "/>
		<path id="dp_path004" fill="white" fill-rule="evenodd" stroke="none" stroke-width="0" d="M 8.64,-15.284 L 15.6587,-15.284 L 15.6587,-12.0333 L 12.108,-12.0333 L 12.108,-9.21733 L 15.1893,-9.21733 L 15.1893,-6.04533 L 12.108,-6.04533 L 12.108,-3.26267 L 15.68,-3.26267 L 15.68,0 L 8.64,0 Z "/>
		<path id="dp_path005" fill="white" fill-rule="evenodd" stroke="none" stroke-width="0" d="M 18.3933,-15.284 L 21.8613,-15.284 L 21.8613,-3.53867 L 24.6107,-3.53867 L 24.6107,0 L 18.3933,0 Z "/>
		<path id="dp_path006" fill="white" fill-rule="evenodd" stroke="none" stroke-width="0" d="M 40.7387,-3.60667 L 40.7387,0.024 C 40.0053,0.26 39.3493,0.377333 38.7707,0.377333 C 36.7627,0.377333 35.1347,-0.374667 33.888,-1.884 C 32.6387,-3.39067 32.0133,-5.37333 32.0133,-7.832 C 32.0133,-10.1133 32.6453,-11.9973 33.904,-13.48 C 35.164,-14.9653 36.7547,-15.708 38.6787,-15.708 C 39.4253,-15.708 40.1133,-15.608 40.7387,-15.4107 L 40.7387,-11.7693 C 40.076,-11.992 39.4493,-12.1013 38.8613,-12.1013 C 37.96,-12.1013 37.2133,-11.6907 36.6173,-10.8667 C 36.0213,-10.0413 35.724,-8.992 35.724,-7.716 C 35.724,-6.34267 36.024,-5.256 36.624,-4.45867 C 37.2227,-3.66133 38.0227,-3.26267 39.0213,-3.26267 C 39.5093,-3.26267 40.0813,-3.37867 40.7387,-3.60667 Z "/>
		<path id="dp_path007" fill="white" fill-rule="evenodd" stroke="none" stroke-width="0" d="M 46.564,-10.9 C 48.0813,-10.9 49.2387,-10.3933 50.032,-9.38267 C 50.8253,-8.37067 51.224,-6.96667 51.224,-5.164 C 51.224,-3.4 50.812,-2.036 49.9867,-1.07067 C 49.1627,-0.105333 48.0213,0.377333 46.564,0.377333 C 45.1667,0.377333 44.0587,-0.114667 43.2373,-1.1 C 42.4173,-2.08267 42.0067,-3.43867 42.0067,-5.164 C 42.0067,-6.96667 42.3973,-8.37067 43.1787,-9.38267 C 43.9627,-10.3933 45.0907,-10.9 46.564,-10.9 Z M 46.5867,-2.59867 C 47.0213,-2.59867 47.3467,-2.80267 47.564,-3.20667 C 47.7827,-3.61067 47.892,-4.30133 47.892,-5.27733 C 47.892,-6.24667 47.7853,-6.92667 47.5693,-7.316 C 47.3573,-7.704 47.036,-7.9 46.608,-7.9 C 46.188,-7.9 45.868,-7.71067 45.6467,-7.33333 C 45.4267,-6.956 45.3147,-6.26267 45.3147,-5.256 C 45.3147,-3.484 45.7387,-2.59867 46.5867,-2.59867 Z "/>
		<path id="dp_path008" fill="white" fill-rule="evenodd" stroke="none" stroke-width="0" d="M 56.4907,-10.5347 L 56.4907,-9.10133 L 56.5467,-9.10133 C 57.3253,-10.2853 58.276,-10.876 59.3987,-10.876 C 60.1307,-10.876 60.7133,-10.632 61.1427,-10.1427 C 61.5747,-9.65467 61.792,-8.996 61.792,-8.164 L 61.792,0 L 58.46,0 L 58.46,-6.49067 C 58.46,-6.85067 58.376,-7.144 58.208,-7.372 C 58.04,-7.60267 57.8213,-7.716 57.556,-7.716 C 56.844,-7.716 56.4907,-7.27067 56.4907,-6.37733 L 56.4907,0 L 53.1693,0 L 53.1693,-10.5347 Z "/>
		<path id="dp_path009" fill="white" fill-rule="evenodd" stroke="none" stroke-width="0" d="M 64.628,-3.4 C 65.7653,-2.72933 66.5853,-2.39333 67.088,-2.39333 C 67.3627,-2.39333 67.592,-2.464 67.776,-2.60533 C 67.9587,-2.74533 68.0507,-2.916 68.0507,-3.11467 C 68.0507,-3.328 67.9747,-3.484 67.82,-3.584 C 67.668,-3.68267 67.096,-3.95067 66.1027,-4.38533 C 65.3093,-4.736 64.7373,-5.15067 64.3867,-5.628 C 64.036,-6.104 63.86,-6.69867 63.86,-7.408 C 63.86,-8.424 64.2093,-9.25867 64.9067,-9.91467 C 65.6067,-10.5707 66.4973,-10.9 67.58,-10.9 C 68.6333,-10.9 69.9253,-10.4787 71.4507,-9.64133 L 70.1693,-7.27067 C 69.176,-7.88 68.364,-8.18667 67.7307,-8.18667 C 67.18,-8.18667 66.9053,-7.964 66.9053,-7.52267 C 66.9053,-7.308 67.0053,-7.124 67.2093,-6.96667 C 67.4107,-6.80933 67.78,-6.63733 68.3133,-6.44667 C 69.3133,-6.09467 70.04,-5.67467 70.496,-5.18533 C 70.9493,-4.69733 71.176,-4.08 71.176,-3.332 C 71.176,-2.26267 70.8173,-1.38533 70.0987,-0.7 C 69.3813,-0.012 68.4667,0.332 67.352,0.332 C 66.1453,0.332 64.856,-0.092 63.4827,-0.937333 Z "/>
		<path id="dp_path010" fill="white" fill-rule="evenodd" stroke="none" stroke-width="0" d="M 73.6533,-13.3387 L 76.984,-13.3387 L 76.984,-10.5347 L 78.28,-10.5347 L 78.28,-7.76267 L 76.9627,-7.76267 L 76.9627,0 L 73.6533,0 L 73.6533,-7.78533 L 72.3947,-7.78533 L 72.3947,-10.5347 L 73.6533,-10.5347 Z "/>
		<path id="dp_path011" fill="white" fill-rule="evenodd" stroke="none" stroke-width="0" d="M 79.9933,-13.6933 C 79.9933,-14.1827 80.1653,-14.5987 80.508,-14.94 C 80.852,-15.284 81.2653,-15.456 81.7453,-15.456 C 82.2347,-15.456 82.6507,-15.284 82.9947,-14.94 C 83.336,-14.5987 83.508,-14.1827 83.508,-13.6933 C 83.508,-13.2133 83.336,-12.7987 82.9947,-12.4507 C 82.6507,-12.1027 82.2347,-11.9293 81.7453,-11.9293 C 81.272,-11.9293 80.8627,-12.1027 80.5147,-12.4507 C 80.1667,-12.7987 79.9933,-13.2133 79.9933,-13.6933 Z M 80.084,-10.5347 L 83.416,-10.5347 L 83.416,0 L 80.084,0 Z "/>
		<path id="dp_path012" fill="white" fill-rule="evenodd" stroke="none" stroke-width="0" d="M 86.4707,-13.3387 L 89.8013,-13.3387 L 89.8013,-10.5347 L 91.0973,-10.5347 L 91.0973,-7.76267 L 89.78,-7.76267 L 89.78,0 L 86.4707,0 L 86.4707,-7.78533 L 85.212,-7.78533 L 85.212,-10.5347 L 86.4707,-10.5347 Z "/>
		<path id="dp_path013" fill="white" fill-rule="evenodd" stroke="none" stroke-width="0" d="M 92.7293,-10.5347 L 96.064,-10.5347 L 96.064,-3.756 C 96.064,-3.404 96.1453,-3.11333 96.308,-2.88 C 96.472,-2.648 96.696,-2.53067 96.9773,-2.53067 C 97.6187,-2.53067 97.94,-3 97.94,-3.93867 L 97.94,-10.5347 L 101.271,-10.5347 L 101.271,-4.432 C 101.271,-2.88267 100.909,-1.696 100.184,-0.876 C 99.46,-0.0546667 98.4147,0.356 97.0467,0.356 C 95.52,0.356 94.42,-0.064 93.744,-0.905333 C 93.068,-1.74533 92.7293,-2.79467 92.7293,-4.052 Z "/>
		<path id="dp_path014" fill="white" fill-rule="evenodd" stroke="none" stroke-width="0" d="M 104.165,-13.3387 L 107.496,-13.3387 L 107.496,-10.5347 L 108.792,-10.5347 L 108.792,-7.76267 L 107.475,-7.76267 L 107.475,0 L 104.165,0 L 104.165,-7.78533 L 102.907,-7.78533 L 102.907,-10.5347 L 104.165,-10.5347 Z "/>
		<path id="dp_path015" fill="white" fill-rule="evenodd" stroke="none" stroke-width="0" d="M 110.505,-13.6933 C 110.505,-14.1827 110.677,-14.5987 111.02,-14.94 C 111.364,-15.284 111.777,-15.456 112.257,-15.456 C 112.747,-15.456 113.163,-15.284 113.507,-14.94 C 113.848,-14.5987 114.02,-14.1827 114.02,-13.6933 C 114.02,-13.2133 113.848,-12.7987 113.507,-12.4507 C 113.163,-12.1027 112.747,-11.9293 112.257,-11.9293 C 111.784,-11.9293 111.375,-12.1027 111.027,-12.4507 C 110.679,-12.7987 110.505,-13.2133 110.505,-13.6933 Z M 110.596,-10.5347 L 113.928,-10.5347 L 113.928,0 L 110.596,0 Z "/>
		<path id="dp_path016" fill="white" fill-rule="evenodd" stroke="none" stroke-width="0" d="M 120.533,-10.9 C 122.051,-10.9 123.208,-10.3933 124.001,-9.38267 C 124.795,-8.37067 125.193,-6.96667 125.193,-5.164 C 125.193,-3.4 124.781,-2.036 123.956,-1.07067 C 123.132,-0.105333 121.991,0.377333 120.533,0.377333 C 119.136,0.377333 118.028,-0.114667 117.207,-1.1 C 116.387,-2.08267 115.976,-3.43867 115.976,-5.164 C 115.976,-6.96667 116.367,-8.37067 117.148,-9.38267 C 117.932,-10.3933 119.06,-10.9 120.533,-10.9 Z M 120.556,-2.59867 C 120.991,-2.59867 121.316,-2.80267 121.533,-3.20667 C 121.752,-3.61067 121.861,-4.30133 121.861,-5.27733 C 121.861,-6.24667 121.755,-6.92667 121.539,-7.316 C 121.327,-7.704 121.005,-7.9 120.577,-7.9 C 120.157,-7.9 119.837,-7.71067 119.616,-7.33333 C 119.396,-6.956 119.284,-6.26267 119.284,-5.256 C 119.284,-3.484 119.708,-2.59867 120.556,-2.59867 Z "/>
		<path id="dp_path017" fill="white" fill-rule="evenodd" stroke="none" stroke-width="0" d="M 130.46,-10.5347 L 130.46,-9.10133 L 130.516,-9.10133 C 131.295,-10.2853 132.245,-10.876 133.368,-10.876 C 134.1,-10.876 134.683,-10.632 135.112,-10.1427 C 135.544,-9.65467 135.761,-8.996 135.761,-8.164 L 135.761,0 L 132.429,0 L 132.429,-6.49067 C 132.429,-6.85067 132.345,-7.144 132.177,-7.372 C 132.009,-7.60267 131.791,-7.716 131.525,-7.716 C 130.813,-7.716 130.46,-7.27067 130.46,-6.37733 L 130.46,0 L 127.139,0 L 127.139,-10.5347 Z "/>
	</g>
</svg>