<?xml version="1.0" encoding="UTF-8" standalone="no"?>
<svg version="1.1" xmlns="http://www.w3.org/2000/svg" xmlns:xlink="http://www.w3.org/1999/xlink" width="281.6" height="50.56">
	<path id="dp_path001" transform="matrix(1,0,0,1,-207.813,-386.801)" fill="#8acb5e" fill-rule="evenodd" stroke="none" stroke-width="0" d="M 208.48,387.468 L 488.776,387.468 L 488.776,436.527 L 208.48,436.527 Z "/>
	<g id="dp_dp002" transform="matrix(1,0,0,1,11.2484,34.4498)">
		<path id="dp_path003" fill="white" fill-rule="evenodd" stroke="none" stroke-width="0" d="M 1.63733,-15.284 L 8.656,-15.284 L 8.656,-12.0333 L 5.10533,-12.0333 L 5.10533,-9.21733 L 8.18667,-9.21733 L 8.18667,-6.04533 L 5.10533,-6.04533 L 5.10533,-3.26267 L 8.67733,-3.26267 L 8.67733,0 L 1.63733,0 Z "/>
		<path id="dp_path004" fill="white" fill-rule="evenodd" stroke="none" stroke-width="0" d="M 16.292,4.34 L 16.292,-1.248 C 15.848,-0.692 15.44,-0.281333 15.0667,-0.0173333 C 14.6907,0.246667 14.2573,0.377333 13.7613,0.377333 C 12.776,0.377333 11.9747,-0.129333 11.356,-1.14533 C 10.7387,-2.16133 10.4293,-3.508 10.4293,-5.18533 C 10.4293,-6.92667 10.7307,-8.30667 11.3347,-9.32667 C 11.936,-10.344 12.7533,-10.8547 13.784,-10.8547 C 14.7067,-10.8547 15.528,-10.308 16.244,-9.21733 L 16.292,-9.21733 L 16.292,-10.5347 L 19.6227,-10.5347 L 19.6227,4.34 Z M 16.292,-5.256 C 16.292,-7.01867 15.8707,-7.9 15.0307,-7.9 C 14.1693,-7.9 13.7373,-6.968 13.7373,-5.10533 C 13.7373,-4.312 13.8507,-3.69733 14.076,-3.25733 C 14.3,-2.81733 14.6187,-2.59867 15.0307,-2.59867 C 15.8707,-2.59867 16.292,-3.484 16.292,-5.256 Z "/>
		<path id="dp_path005" fill="white" fill-rule="evenodd" stroke="none" stroke-width="0" d="M 22.0733,-10.5347 L 25.408,-10.5347 L 25.408,-3.756 C 25.408,-3.404 25.4893,-3.11333 25.652,-2.88 C 25.816,-2.648 26.04,-2.53067 26.3213,-2.53067 C 26.9627,-2.53067 27.284,-3 27.284,-3.93867 L 27.284,-10.5347 L 30.6147,-10.5347 L 30.6147,-4.432 C 30.6147,-2.88267 30.2533,-1.696 29.528,-0.876 C 28.804,-0.0546667 27.7587,0.356 26.3907,0.356 C 24.864,0.356 23.764,-0.064 23.088,-0.905333 C 22.412,-1.74533 22.0733,-2.79467 22.0733,-4.052 Z "/>
		<path id="dp_path006" fill="white" fill-rule="evenodd" stroke="none" stroke-width="0" d="M 38.3413,0 L 38.3413,-1.38533 L 38.296,-1.38533 C 37.892,-0.789333 37.4987,-0.352 37.1227,-0.068 C 36.7453,0.213333 36.3,0.356 35.788,0.356 C 34.7893,0.356 33.992,-0.156 33.396,-1.18 C 32.8,-2.20267 32.5027,-3.592 32.5027,-5.34667 C 32.5027,-7.03467 32.804,-8.37733 33.408,-9.37733 C 34.0093,-10.3773 34.8027,-10.876 35.788,-10.876 C 36.3147,-10.876 36.76,-10.7453 37.128,-10.4813 C 37.4933,-10.22 37.876,-9.79733 38.2733,-9.21733 L 38.3173,-9.21733 L 38.3173,-10.5347 L 41.6493,-10.5347 L 41.6493,0 Z M 38.3413,-5.324 C 38.3413,-7.072 37.9133,-7.94533 37.06,-7.94533 C 36.196,-7.94533 35.7653,-7.072 35.7653,-5.324 C 35.7653,-3.508 36.212,-2.59867 37.104,-2.59867 C 37.9293,-2.59867 38.3413,-3.508 38.3413,-5.324 Z "/>
		<path id="dp_path007" fill="white" fill-rule="evenodd" stroke="none" stroke-width="0" d="M 44.256,-16.132 L 47.588,-16.132 L 47.588,0 L 44.256,0 Z "/>
		<path id="dp_path008" fill="white" fill-rule="evenodd" stroke="none" stroke-width="0" d="M 50.2307,-13.6933 C 50.2307,-14.1827 50.4027,-14.5987 50.7453,-14.94 C 51.0893,-15.284 51.5027,-15.456 51.9827,-15.456 C 52.472,-15.456 52.888,-15.284 53.232,-14.94 C 53.5733,-14.5987 53.7453,-14.1827 53.7453,-13.6933 C 53.7453,-13.2133 53.5733,-12.7987 53.232,-12.4507 C 52.888,-12.1027 52.472,-11.9293 51.9827,-11.9293 C 51.5093,-11.9293 51.1,-12.1027 50.752,-12.4507 C 50.404,-12.7987 50.2307,-13.2133 50.2307,-13.6933 Z M 50.3213,-10.5347 L 53.6533,-10.5347 L 53.6533,0 L 50.3213,0 Z "/>
		<path id="dp_path009" fill="white" fill-rule="evenodd" stroke="none" stroke-width="0" d="M 56.708,-13.3387 L 60.0387,-13.3387 L 60.0387,-10.5347 L 61.3347,-10.5347 L 61.3347,-7.76267 L 60.0173,-7.76267 L 60.0173,0 L 56.708,0 L 56.708,-7.78533 L 55.4493,-7.78533 L 55.4493,-10.5347 L 56.708,-10.5347 Z "/>
		<path id="dp_path010" fill="white" fill-rule="evenodd" stroke="none" stroke-width="0" d="M 62.0053,-10.5347 L 65.292,-10.5347 L 66.1293,-7.796 C 66.4187,-6.83467 66.6707,-5.89333 66.8827,-4.96933 L 66.9413,-4.96933 C 67.116,-5.84667 67.2627,-6.47733 67.376,-6.85867 L 68.488,-10.5347 L 71.8187,-10.5347 L 67.3307,4.34 L 64.0107,4.34 L 65.3613,-0.137333 Z "/>
		<path id="dp_path011" fill="white" fill-rule="evenodd" stroke="none" stroke-width="0" d="M 84.3013,0 L 84.3013,-1.38533 L 84.256,-1.38533 C 83.852,-0.789333 83.4587,-0.352 83.0827,-0.068 C 82.7053,0.213333 82.26,0.356 81.748,0.356 C 80.7493,0.356 79.952,-0.156 79.356,-1.18 C 78.76,-2.20267 78.4627,-3.592 78.4627,-5.34667 C 78.4627,-7.03467 78.764,-8.37733 79.368,-9.37733 C 79.9693,-10.3773 80.7627,-10.876 81.748,-10.876 C 82.2747,-10.876 82.72,-10.7453 83.088,-10.4813 C 83.4533,-10.22 83.836,-9.79733 84.2333,-9.21733 L 84.2773,-9.21733 L 84.2773,-10.5347 L 87.6093,-10.5347 L 87.6093,0 Z M 84.3013,-5.324 C 84.3013,-7.072 83.8733,-7.94533 83.02,-7.94533 C 82.156,-7.94533 81.7253,-7.072 81.7253,-5.324 C 81.7253,-3.508 82.172,-2.59867 83.064,-2.59867 C 83.8893,-2.59867 84.3013,-3.508 84.3013,-5.324 Z "/>
		<path id="dp_path012" fill="white" fill-rule="evenodd" stroke="none" stroke-width="0" d="M 93.4467,-10.5347 L 93.4467,-9.10133 L 93.5027,-9.10133 C 94.2813,-10.2853 95.232,-10.876 96.3547,-10.876 C 97.0867,-10.876 97.6693,-10.632 98.0987,-10.1427 C 98.5307,-9.65467 98.748,-8.996 98.748,-8.164 L 98.748,0 L 95.416,0 L 95.416,-6.49067 C 95.416,-6.85067 95.332,-7.144 95.164,-7.372 C 94.996,-7.60267 94.7773,-7.716 94.512,-7.716 C 93.8,-7.716 93.4467,-7.27067 93.4467,-6.37733 L 93.4467,0 L 90.1253,0 L 90.1253,-10.5347 Z "/>
		<path id="dp_path013" fill="white" fill-rule="evenodd" stroke="none" stroke-width="0" d="M 106.437,-16.132 L 109.745,-16.132 L 109.745,0 L 106.413,0 L 106.413,-1.38533 L 106.369,-1.38533 C 105.628,-0.225333 104.792,0.356 103.861,0.356 C 102.885,0.356 102.096,-0.156 101.497,-1.18 C 100.897,-2.20267 100.599,-3.568 100.599,-5.27733 C 100.599,-6.98 100.904,-8.34 101.515,-9.35333 C 102.125,-10.3693 102.929,-10.876 103.931,-10.876 C 104.839,-10.876 105.673,-10.3547 106.437,-9.30933 Z M 106.437,-5.34667 C 106.437,-7.08 106.017,-7.94533 105.179,-7.94533 C 104.315,-7.94533 103.884,-7.02667 103.884,-5.18533 C 103.884,-4.36933 104,-3.73867 104.233,-3.292 C 104.465,-2.84533 104.788,-2.62267 105.2,-2.62267 C 105.584,-2.62267 105.884,-2.85867 106.105,-3.332 C 106.325,-3.804 106.437,-4.476 106.437,-5.34667 Z "/>
		<path id="dp_path014" fill="white" fill-rule="evenodd" stroke="none" stroke-width="0" d="M 118.381,-15.284 L 121.621,-15.284 C 123.867,-15.284 125.572,-14.6453 126.739,-13.3667 C 127.907,-12.0893 128.492,-10.22 128.492,-7.76267 C 128.492,-5.90133 128.203,-4.396 127.625,-3.252 C 127.049,-2.10667 126.244,-1.27733 125.211,-0.768 C 124.177,-0.256 123.033,0 121.781,0 L 118.381,0 Z M 121.849,-12.0333 L 121.849,-3.26267 C 122.903,-3.35467 123.648,-3.72667 124.083,-4.37867 C 124.519,-5.032 124.736,-6.10667 124.736,-7.60267 C 124.736,-8.488 124.66,-9.23867 124.507,-9.852 C 124.355,-10.468 124.127,-10.94 123.825,-11.272 C 123.524,-11.6027 123.229,-11.808 122.944,-11.884 C 122.657,-11.96 122.293,-12.0107 121.849,-12.0333 Z "/>
		<path id="dp_path015" fill="white" fill-rule="evenodd" stroke="none" stroke-width="0" d="M 130.457,-13.6933 C 130.457,-14.1827 130.629,-14.5987 130.972,-14.94 C 131.316,-15.284 131.729,-15.456 132.209,-15.456 C 132.699,-15.456 133.115,-15.284 133.459,-14.94 C 133.8,-14.5987 133.972,-14.1827 133.972,-13.6933 C 133.972,-13.2133 133.8,-12.7987 133.459,-12.4507 C 133.115,-12.1027 132.699,-11.9293 132.209,-11.9293 C 131.736,-11.9293 131.327,-12.1027 130.979,-12.4507 C 130.631,-12.7987 130.457,-13.2133 130.457,-13.6933 Z M 130.548,-10.5347 L 133.88,-10.5347 L 133.88,0 L 130.548,0 Z "/>
		<path id="dp_path016" fill="white" fill-rule="evenodd" stroke="none" stroke-width="0" d="M 135.516,-10.5347 L 138.767,-10.5347 L 140.084,-4.832 L 140.129,-4.832 L 141.447,-10.5347 L 144.744,-10.5347 L 141.469,0 L 138.767,0 Z "/>
		<path id="dp_path017" fill="white" fill-rule="evenodd" stroke="none" stroke-width="0" d="M 151.225,-3.21867 L 154.029,-3.21867 C 153.496,-0.852 152.16,0.332 150.021,0.332 C 148.688,0.332 147.631,-0.176 146.851,-1.18933 C 146.073,-2.20667 145.684,-3.60667 145.684,-5.39333 C 145.684,-7.056 146.073,-8.39067 146.851,-9.39467 C 147.631,-10.3973 148.664,-10.9 149.953,-10.9 C 150.733,-10.9 151.481,-10.6573 152.199,-10.172 C 152.916,-9.688 153.437,-9.04533 153.765,-8.244 C 154.095,-7.44267 154.277,-6.17867 154.317,-4.45333 L 148.764,-4.45333 C 148.808,-2.88933 149.244,-2.10667 150.069,-2.10667 C 150.351,-2.10667 150.603,-2.20933 150.825,-2.41467 C 151.045,-2.62267 151.179,-2.88933 151.225,-3.21867 Z M 148.808,-6.26267 L 151.225,-6.26267 C 151.203,-7.00267 151.099,-7.55067 150.915,-7.90533 C 150.733,-8.26133 150.443,-8.43733 150.045,-8.43733 C 149.604,-8.43733 149.285,-8.268 149.096,-7.924 C 148.904,-7.58 148.808,-7.02667 148.808,-6.26267 Z "/>
		<path id="dp_path018" fill="white" fill-rule="evenodd" stroke="none" stroke-width="0" d="M 159.467,-10.5347 L 159.467,-8.76933 L 159.513,-8.76933 C 160.307,-10.1427 161.143,-10.8307 162.02,-10.8307 C 162.149,-10.8307 162.329,-10.808 162.557,-10.7627 L 162.557,-7.5 C 162.153,-7.568 161.78,-7.60267 161.436,-7.60267 C 160.215,-7.60267 159.605,-6.812 159.605,-5.23333 L 159.605,0 L 156.284,0 L 156.284,-10.5347 Z "/>
		<path id="dp_path019" fill="white" fill-rule="evenodd" stroke="none" stroke-width="0" d="M 164.74,-3.4 C 165.877,-2.72933 166.697,-2.39333 167.2,-2.39333 C 167.475,-2.39333 167.704,-2.464 167.888,-2.60533 C 168.071,-2.74533 168.163,-2.916 168.163,-3.11467 C 168.163,-3.328 168.087,-3.484 167.932,-3.584 C 167.78,-3.68267 167.208,-3.95067 166.215,-4.38533 C 165.421,-4.736 164.849,-5.15067 164.499,-5.628 C 164.148,-6.104 163.972,-6.69867 163.972,-7.408 C 163.972,-8.424 164.321,-9.25867 165.019,-9.91467 C 165.719,-10.5707 166.609,-10.9 167.692,-10.9 C 168.745,-10.9 170.037,-10.4787 171.563,-9.64133 L 170.281,-7.27067 C 169.288,-7.88 168.476,-8.18667 167.843,-8.18667 C 167.292,-8.18667 167.017,-7.964 167.017,-7.52267 C 167.017,-7.308 167.117,-7.124 167.321,-6.96667 C 167.523,-6.80933 167.892,-6.63733 168.425,-6.44667 C 169.425,-6.09467 170.152,-5.67467 170.608,-5.18533 C 171.061,-4.69733 171.288,-4.08 171.288,-3.332 C 171.288,-2.26267 170.929,-1.38533 170.211,-0.7 C 169.493,-0.012 168.579,0.332 167.464,0.332 C 166.257,0.332 164.968,-0.092 163.595,-0.937333 Z "/>
		<path id="dp_path020" fill="white" fill-rule="evenodd" stroke="none" stroke-width="0" d="M 173.353,-13.6933 C 173.353,-14.1827 173.525,-14.5987 173.868,-14.94 C 174.212,-15.284 174.625,-15.456 175.105,-15.456 C 175.595,-15.456 176.011,-15.284 176.355,-14.94 C 176.696,-14.5987 176.868,-14.1827 176.868,-13.6933 C 176.868,-13.2133 176.696,-12.7987 176.355,-12.4507 C 176.011,-12.1027 175.595,-11.9293 175.105,-11.9293 C 174.632,-11.9293 174.223,-12.1027 173.875,-12.4507 C 173.527,-12.7987 173.353,-13.2133 173.353,-13.6933 Z M 173.444,-10.5347 L 176.776,-10.5347 L 176.776,0 L 173.444,0 Z "/>
		<path id="dp_path021" fill="white" fill-rule="evenodd" stroke="none" stroke-width="0" d="M 179.831,-13.3387 L 183.161,-13.3387 L 183.161,-10.5347 L 184.457,-10.5347 L 184.457,-7.76267 L 183.14,-7.76267 L 183.14,0 L 179.831,0 L 179.831,-7.78533 L 178.572,-7.78533 L 178.572,-10.5347 L 179.831,-10.5347 Z "/>
		<path id="dp_path022" fill="white" fill-rule="evenodd" stroke="none" stroke-width="0" d="M 185.128,-10.5347 L 188.415,-10.5347 L 189.252,-7.796 C 189.541,-6.83467 189.793,-5.89333 190.005,-4.96933 L 190.064,-4.96933 C 190.239,-5.84667 190.385,-6.47733 190.499,-6.85867 L 191.611,-10.5347 L 194.941,-10.5347 L 190.453,4.34 L 187.133,4.34 L 188.484,-0.137333 Z "/>
		<path id="dp_path023" fill="white" fill-rule="evenodd" stroke="none" stroke-width="0" d="M 202.547,-15.284 L 206.84,-15.284 C 208.352,-15.284 209.565,-14.8547 210.48,-13.9907 C 211.396,-13.1293 211.856,-11.992 211.856,-10.5787 C 211.856,-9.09067 211.391,-7.92533 210.464,-7.08133 C 209.536,-6.23733 208.252,-5.81733 206.611,-5.81733 L 206.015,-5.81733 L 206.015,0 L 202.547,0 Z M 206.015,-12.3533 L 206.015,-8.748 C 206.795,-8.76133 207.369,-8.912 207.739,-9.19333 C 208.109,-9.47733 208.293,-9.92267 208.293,-10.5347 C 208.293,-11.1907 208.116,-11.6533 207.756,-11.9253 C 207.396,-12.1947 206.816,-12.34 206.015,-12.3533 Z "/>
		<path id="dp_path024" fill="white" fill-rule="evenodd" stroke="none" stroke-width="0" d="M 218.085,-10.9 C 219.603,-10.9 220.76,-10.3933 221.553,-9.38267 C 222.347,-8.37067 222.745,-6.96667 222.745,-5.164 C 222.745,-3.4 222.333,-2.036 221.508,-1.07067 C 220.684,-0.105333 219.543,0.377333 218.085,0.377333 C 216.688,0.377333 215.58,-0.114667 214.759,-1.1 C 213.939,-2.08267 213.528,-3.43867 213.528,-5.164 C 213.528,-6.96667 213.919,-8.37067 214.7,-9.38267 C 215.484,-10.3933 216.612,-10.9 218.085,-10.9 Z M 218.108,-2.59867 C 218.543,-2.59867 218.868,-2.80267 219.085,-3.20667 C 219.304,-3.61067 219.413,-4.30133 219.413,-5.27733 C 219.413,-6.24667 219.307,-6.92667 219.091,-7.316 C 218.879,-7.704 218.557,-7.9 218.129,-7.9 C 217.709,-7.9 217.389,-7.71067 217.168,-7.33333 C 216.948,-6.956 216.836,-6.26267 216.836,-5.256 C 216.836,-3.484 217.26,-2.59867 218.108,-2.59867 Z "/>
		<path id="dp_path025" fill="white" fill-rule="evenodd" stroke="none" stroke-width="0" d="M 224.781,-16.132 L 228.113,-16.132 L 228.113,0 L 224.781,0 Z "/>
		<path id="dp_path026" fill="white" fill-rule="evenodd" stroke="none" stroke-width="0" d="M 230.756,-13.6933 C 230.756,-14.1827 230.928,-14.5987 231.271,-14.94 C 231.615,-15.284 232.028,-15.456 232.508,-15.456 C 232.997,-15.456 233.413,-15.284 233.757,-14.94 C 234.099,-14.5987 234.271,-14.1827 234.271,-13.6933 C 234.271,-13.2133 234.099,-12.7987 233.757,-12.4507 C 233.413,-12.1027 232.997,-11.9293 232.508,-11.9293 C 232.035,-11.9293 231.625,-12.1027 231.277,-12.4507 C 230.929,-12.7987 230.756,-13.2133 230.756,-13.6933 Z M 230.847,-10.5347 L 234.179,-10.5347 L 234.179,0 L 230.847,0 Z "/>
		<path id="dp_path027" fill="white" fill-rule="evenodd" stroke="none" stroke-width="0" d="M 242.535,-3.21867 L 242.535,-0.469333 C 241.741,0.064 240.944,0.332 240.143,0.332 C 238.959,0.332 238.011,-0.181333 237.297,-1.208 C 236.583,-2.236 236.227,-3.61467 236.227,-5.34667 C 236.227,-6.988 236.592,-8.324 237.325,-9.35333 C 238.057,-10.384 239.005,-10.9 240.164,-10.9 C 240.973,-10.9 241.772,-10.6147 242.557,-10.0413 L 242.557,-7.316 C 242.108,-7.552 241.701,-7.672 241.344,-7.672 C 240.809,-7.672 240.379,-7.45467 240.051,-7.024 C 239.723,-6.59333 239.559,-6.01867 239.559,-5.30133 C 239.559,-4.54533 239.719,-3.94933 240.039,-3.51467 C 240.36,-3.08 240.795,-2.86267 241.344,-2.86267 C 241.68,-2.86267 242.077,-2.98 242.535,-3.21867 Z "/>
		<path id="dp_path028" fill="white" fill-rule="evenodd" stroke="none" stroke-width="0" d="M 243.469,-10.5347 L 246.756,-10.5347 L 247.593,-7.796 C 247.883,-6.83467 248.135,-5.89333 248.347,-4.96933 L 248.405,-4.96933 C 248.58,-5.84667 248.727,-6.47733 248.84,-6.85867 L 249.952,-10.5347 L 253.283,-10.5347 L 248.795,4.34 L 245.475,4.34 L 246.825,-0.137333 Z "/>
	</g>
</svg>