<?xml version="1.0" encoding="UTF-8" standalone="no"?>
<svg version="1.1" xmlns="http://www.w3.org/2000/svg" xmlns:xlink="http://www.w3.org/1999/xlink" width="281.6" height="50.56">
	<path id="dp_path001" transform="matrix(1,0,0,1,-207.813,-207.301)" fill="#8acb5e" fill-rule="evenodd" stroke="none" stroke-width="0" d="M 208.48,207.968 L 488.776,207.968 L 488.776,257.027 L 208.48,257.027 Z "/>
	<g id="dp_dp002" transform="matrix(1,0,0,1,11.2488,34.4495)">
		<path id="dp_path003" fill="white" fill-rule="evenodd" stroke="none" stroke-width="0" d="M 1.63733,-15.284 L 8.656,-15.284 L 8.656,-12.0107 L 5.10533,-12.0107 L 5.10533,-9.21733 L 8.232,-9.21733 L 8.232,-6.04533 L 5.10533,-6.04533 L 5.10533,0 L 1.63733,0 Z "/>
		<path id="dp_path004" fill="white" fill-rule="evenodd" stroke="none" stroke-width="0" d="M 10.524,-13.6933 C 10.524,-14.1827 10.696,-14.5987 11.0387,-14.94 C 11.3827,-15.284 11.796,-15.456 12.276,-15.456 C 12.7653,-15.456 13.1813,-15.284 13.5253,-14.94 C 13.8667,-14.5987 14.0387,-14.1827 14.0387,-13.6933 C 14.0387,-13.2133 13.8667,-12.7987 13.5253,-12.4507 C 13.1813,-12.1027 12.7653,-11.9293 12.276,-11.9293 C 11.8027,-11.9293 11.3933,-12.1027 11.0453,-12.4507 C 10.6973,-12.7987 10.524,-13.2133 10.524,-13.6933 Z M 10.6147,-10.5347 L 13.9467,-10.5347 L 13.9467,0 L 10.6147,0 Z "/>
		<path id="dp_path005" fill="white" fill-rule="evenodd" stroke="none" stroke-width="0" d="M 19.9107,-10.5347 L 19.9107,-9.10133 L 19.9667,-9.10133 C 20.7453,-10.2853 21.696,-10.876 22.8187,-10.876 C 23.5507,-10.876 24.1333,-10.632 24.5627,-10.1427 C 24.9947,-9.65467 25.212,-8.996 25.212,-8.164 L 25.212,0 L 21.88,0 L 21.88,-6.49067 C 21.88,-6.85067 21.796,-7.144 21.628,-7.372 C 21.46,-7.60267 21.2413,-7.716 20.976,-7.716 C 20.264,-7.716 19.9107,-7.27067 19.9107,-6.37733 L 19.9107,0 L 16.5893,0 L 16.5893,-10.5347 Z "/>
		<path id="dp_path006" fill="white" fill-rule="evenodd" stroke="none" stroke-width="0" d="M 32.9013,0 L 32.9013,-1.38533 L 32.856,-1.38533 C 32.452,-0.789333 32.0587,-0.352 31.6827,-0.068 C 31.3053,0.213333 30.86,0.356 30.348,0.356 C 29.3493,0.356 28.552,-0.156 27.956,-1.18 C 27.36,-2.20267 27.0627,-3.592 27.0627,-5.34667 C 27.0627,-7.03467 27.364,-8.37733 27.968,-9.37733 C 28.5693,-10.3773 29.3627,-10.876 30.348,-10.876 C 30.8747,-10.876 31.32,-10.7453 31.688,-10.4813 C 32.0533,-10.22 32.436,-9.79733 32.8333,-9.21733 L 32.8773,-9.21733 L 32.8773,-10.5347 L 36.2093,-10.5347 L 36.2093,0 Z M 32.9013,-5.324 C 32.9013,-7.072 32.4733,-7.94533 31.62,-7.94533 C 30.756,-7.94533 30.3253,-7.072 30.3253,-5.324 C 30.3253,-3.508 30.772,-2.59867 31.664,-2.59867 C 32.4893,-2.59867 32.9013,-3.508 32.9013,-5.324 Z "/>
		<path id="dp_path007" fill="white" fill-rule="evenodd" stroke="none" stroke-width="0" d="M 42.0467,-10.5347 L 42.0467,-9.10133 L 42.1027,-9.10133 C 42.8813,-10.2853 43.832,-10.876 44.9547,-10.876 C 45.6867,-10.876 46.2693,-10.632 46.6987,-10.1427 C 47.1307,-9.65467 47.348,-8.996 47.348,-8.164 L 47.348,0 L 44.016,0 L 44.016,-6.49067 C 44.016,-6.85067 43.932,-7.144 43.764,-7.372 C 43.596,-7.60267 43.3773,-7.716 43.112,-7.716 C 42.4,-7.716 42.0467,-7.27067 42.0467,-6.37733 L 42.0467,0 L 38.7253,0 L 38.7253,-10.5347 Z "/>
		<path id="dp_path008" fill="white" fill-rule="evenodd" stroke="none" stroke-width="0" d="M 55.5067,-3.21867 L 55.5067,-0.469333 C 54.7133,0.064 53.916,0.332 53.1147,0.332 C 51.9307,0.332 50.9827,-0.181333 50.2693,-1.208 C 49.5547,-2.236 49.1987,-3.61467 49.1987,-5.34667 C 49.1987,-6.988 49.564,-8.324 50.2973,-9.35333 C 51.0293,-10.384 51.9773,-10.9 53.136,-10.9 C 53.9453,-10.9 54.744,-10.6147 55.5293,-10.0413 L 55.5293,-7.316 C 55.08,-7.552 54.6733,-7.672 54.316,-7.672 C 53.7813,-7.672 53.3507,-7.45467 53.0227,-7.024 C 52.6947,-6.59333 52.5307,-6.01867 52.5307,-5.30133 C 52.5307,-4.54533 52.6907,-3.94933 53.0107,-3.51467 C 53.332,-3.08 53.7667,-2.86267 54.316,-2.86267 C 54.652,-2.86267 55.0493,-2.98 55.5067,-3.21867 Z "/>
		<path id="dp_path009" fill="white" fill-rule="evenodd" stroke="none" stroke-width="0" d="M 57.484,-13.6933 C 57.484,-14.1827 57.656,-14.5987 57.9987,-14.94 C 58.3427,-15.284 58.756,-15.456 59.236,-15.456 C 59.7253,-15.456 60.1413,-15.284 60.4853,-14.94 C 60.8267,-14.5987 60.9987,-14.1827 60.9987,-13.6933 C 60.9987,-13.2133 60.8267,-12.7987 60.4853,-12.4507 C 60.1413,-12.1027 59.7253,-11.9293 59.236,-11.9293 C 58.7627,-11.9293 58.3533,-12.1027 58.0053,-12.4507 C 57.6573,-12.7987 57.484,-13.2133 57.484,-13.6933 Z M 57.5747,-10.5347 L 60.9067,-10.5347 L 60.9067,0 L 57.5747,0 Z "/>
		<path id="dp_path010" fill="white" fill-rule="evenodd" stroke="none" stroke-width="0" d="M 68.7933,0 L 68.7933,-1.38533 L 68.748,-1.38533 C 68.344,-0.789333 67.9507,-0.352 67.5747,-0.068 C 67.1973,0.213333 66.752,0.356 66.24,0.356 C 65.2413,0.356 64.444,-0.156 63.848,-1.18 C 63.252,-2.20267 62.9547,-3.592 62.9547,-5.34667 C 62.9547,-7.03467 63.256,-8.37733 63.86,-9.37733 C 64.4613,-10.3773 65.2547,-10.876 66.24,-10.876 C 66.7667,-10.876 67.212,-10.7453 67.58,-10.4813 C 67.9453,-10.22 68.328,-9.79733 68.7253,-9.21733 L 68.7693,-9.21733 L 68.7693,-10.5347 L 72.1013,-10.5347 L 72.1013,0 Z M 68.7933,-5.324 C 68.7933,-7.072 68.3653,-7.94533 67.512,-7.94533 C 66.648,-7.94533 66.2173,-7.072 66.2173,-5.324 C 66.2173,-3.508 66.664,-2.59867 67.556,-2.59867 C 68.3813,-2.59867 68.7933,-3.508 68.7933,-5.324 Z "/>
		<path id="dp_path011" fill="white" fill-rule="evenodd" stroke="none" stroke-width="0" d="M 74.708,-16.132 L 78.04,-16.132 L 78.04,0 L 74.708,0 Z "/>
		<path id="dp_path012" fill="white" fill-rule="evenodd" stroke="none" stroke-width="0" d="M 86.8027,-15.284 L 90.844,-15.284 C 92.4773,-15.284 93.7667,-14.8667 94.7147,-14.0253 C 95.66,-13.1853 96.1333,-12.044 96.1333,-10.6027 C 96.1333,-9.86133 95.9533,-9.14667 95.596,-8.45467 C 95.236,-7.76533 94.7147,-7.244 94.0267,-6.892 L 96.7973,0 L 93.1333,0 L 90.3293,-6.96267 L 90.2707,-6.96267 L 90.2707,0 L 86.8027,0 Z M 90.2707,-12.332 L 90.2707,-8.70133 C 91.8053,-8.732 92.5733,-9.26933 92.5733,-10.3147 C 92.5733,-11.0267 92.3947,-11.532 92.0413,-11.8387 C 91.6853,-12.144 91.096,-12.308 90.2707,-12.332 Z "/>
		<path id="dp_path013" fill="white" fill-rule="evenodd" stroke="none" stroke-width="0" d="M 103.324,-3.21867 L 106.128,-3.21867 C 105.595,-0.852 104.259,0.332 102.12,0.332 C 100.787,0.332 99.7293,-0.176 98.9493,-1.18933 C 98.172,-2.20667 97.7827,-3.60667 97.7827,-5.39333 C 97.7827,-7.056 98.172,-8.39067 98.9493,-9.39467 C 99.7293,-10.3973 100.763,-10.9 102.052,-10.9 C 102.832,-10.9 103.58,-10.6573 104.297,-10.172 C 105.015,-9.688 105.536,-9.04533 105.864,-8.244 C 106.193,-7.44267 106.376,-6.17867 106.416,-4.45333 L 100.863,-4.45333 C 100.907,-2.88933 101.343,-2.10667 102.168,-2.10667 C 102.449,-2.10667 102.701,-2.20933 102.924,-2.41467 C 103.144,-2.62267 103.277,-2.88933 103.324,-3.21867 Z M 100.907,-6.26267 L 103.324,-6.26267 C 103.301,-7.00267 103.197,-7.55067 103.013,-7.90533 C 102.832,-8.26133 102.541,-8.43733 102.144,-8.43733 C 101.703,-8.43733 101.384,-8.268 101.195,-7.924 C 101.003,-7.58 100.907,-7.02667 100.907,-6.26267 Z "/>
		<path id="dp_path014" fill="white" fill-rule="evenodd" stroke="none" stroke-width="0" d="M 111.704,-10.5347 L 111.704,-9.19333 L 111.76,-9.19333 C 112.501,-10.2853 113.337,-10.8307 114.268,-10.8307 C 115.268,-10.8307 116.071,-10.3213 116.679,-9.30267 C 117.284,-8.28267 117.588,-6.91067 117.588,-5.18533 C 117.588,-3.52267 117.277,-2.17867 116.656,-1.15733 C 116.032,-0.133333 115.237,0.377333 114.268,0.377333 C 113.245,0.377333 112.409,-0.210667 111.76,-1.38533 L 111.704,-1.38533 L 111.704,4.34 L 108.383,4.34 L 108.383,-10.5347 Z M 114.268,-5.30133 C 114.268,-7.03467 113.829,-7.9 112.951,-7.9 C 112.12,-7.9 111.704,-7.02667 111.704,-5.27733 C 111.704,-3.476 112.12,-2.576 112.951,-2.576 C 113.829,-2.576 114.268,-3.484 114.268,-5.30133 Z "/>
		<path id="dp_path015" fill="white" fill-rule="evenodd" stroke="none" stroke-width="0" d="M 123.539,-10.9 C 125.056,-10.9 126.213,-10.3933 127.007,-9.38267 C 127.8,-8.37067 128.199,-6.96667 128.199,-5.164 C 128.199,-3.4 127.787,-2.036 126.961,-1.07067 C 126.137,-0.105333 124.996,0.377333 123.539,0.377333 C 122.141,0.377333 121.033,-0.114667 120.212,-1.1 C 119.392,-2.08267 118.981,-3.43867 118.981,-5.164 C 118.981,-6.96667 119.372,-8.37067 120.153,-9.38267 C 120.937,-10.3933 122.065,-10.9 123.539,-10.9 Z M 123.561,-2.59867 C 123.996,-2.59867 124.321,-2.80267 124.539,-3.20667 C 124.757,-3.61067 124.867,-4.30133 124.867,-5.27733 C 124.867,-6.24667 124.76,-6.92667 124.544,-7.316 C 124.332,-7.704 124.011,-7.9 123.583,-7.9 C 123.163,-7.9 122.843,-7.71067 122.621,-7.33333 C 122.401,-6.956 122.289,-6.26267 122.289,-5.256 C 122.289,-3.484 122.713,-2.59867 123.561,-2.59867 Z "/>
		<path id="dp_path016" fill="white" fill-rule="evenodd" stroke="none" stroke-width="0" d="M 133.327,-10.5347 L 133.327,-8.76933 L 133.373,-8.76933 C 134.167,-10.1427 135.003,-10.8307 135.88,-10.8307 C 136.009,-10.8307 136.189,-10.808 136.417,-10.7627 L 136.417,-7.5 C 136.013,-7.568 135.64,-7.60267 135.296,-7.60267 C 134.075,-7.60267 133.465,-6.812 133.465,-5.23333 L 133.465,0 L 130.144,0 L 130.144,-10.5347 Z "/>
		<path id="dp_path017" fill="white" fill-rule="evenodd" stroke="none" stroke-width="0" d="M 138.621,-13.3387 L 141.952,-13.3387 L 141.952,-10.5347 L 143.248,-10.5347 L 143.248,-7.76267 L 141.931,-7.76267 L 141.931,0 L 138.621,0 L 138.621,-7.78533 L 137.363,-7.78533 L 137.363,-10.5347 L 138.621,-10.5347 Z "/>
		<path id="dp_path018" fill="white" fill-rule="evenodd" stroke="none" stroke-width="0" d="M 154.229,-9.61733 L 150.876,-9.61733 C 150.876,-10.7627 150.923,-11.66 151.019,-12.308 C 151.115,-12.9573 151.312,-13.532 151.613,-14.032 C 151.916,-14.532 152.377,-14.932 152.999,-15.2333 C 153.621,-15.5347 154.36,-15.6853 155.215,-15.6853 C 156.627,-15.6853 157.712,-15.316 158.465,-14.5747 C 159.221,-13.8347 159.599,-12.7653 159.599,-11.368 C 159.599,-10.6507 159.455,-9.88 159.165,-9.05067 C 158.875,-8.22267 158.44,-7.312 157.86,-6.31867 L 155.983,-3.11467 L 159.061,-3.11467 L 159.061,0 L 150.337,0 L 155.329,-8.52933 C 155.939,-9.55333 156.244,-10.4827 156.244,-11.324 C 156.244,-11.744 156.155,-12.088 155.971,-12.3533 C 155.787,-12.6213 155.559,-12.7533 155.283,-12.7533 C 154.849,-12.7533 154.564,-12.58 154.431,-12.2333 C 154.296,-11.8867 154.229,-11.2027 154.229,-10.1787 Z "/>
		<path id="dp_path019" fill="white" fill-rule="evenodd" stroke="none" stroke-width="0" d="M 166.676,-15.6853 C 168.331,-15.6853 169.589,-15.0027 170.447,-13.6373 C 171.307,-12.2693 171.737,-10.2587 171.737,-7.60267 C 171.737,-5.01333 171.299,-3.03467 170.425,-1.66133 C 169.551,-0.286667 168.301,0.4 166.676,0.4 C 165.135,0.4 163.907,-0.242667 162.995,-1.528 C 162.083,-2.81333 161.627,-4.89333 161.627,-7.76267 C 161.627,-10.2813 162.064,-12.232 162.944,-13.6133 C 163.821,-14.9947 165.051,-15.6853 166.629,-15.6853 Z M 164.959,-7.78533 C 164.959,-4.52 165.523,-2.88667 166.652,-2.88667 C 167.263,-2.88667 167.704,-3.24533 167.975,-3.96667 C 168.245,-4.688 168.381,-5.83467 168.381,-7.408 C 168.381,-9.14133 168.245,-10.4013 167.975,-11.192 C 167.704,-11.9813 167.256,-12.376 166.629,-12.376 C 165.515,-12.376 164.959,-10.8467 164.959,-7.78533 Z "/>
		<path id="dp_path020" fill="white" fill-rule="evenodd" stroke="none" stroke-width="0" d="M 177.241,-9.61733 L 173.888,-9.61733 C 173.888,-10.7627 173.935,-11.66 174.031,-12.308 C 174.127,-12.9573 174.324,-13.532 174.625,-14.032 C 174.928,-14.532 175.389,-14.932 176.011,-15.2333 C 176.633,-15.5347 177.372,-15.6853 178.227,-15.6853 C 179.639,-15.6853 180.724,-15.316 181.477,-14.5747 C 182.233,-13.8347 182.611,-12.7653 182.611,-11.368 C 182.611,-10.6507 182.467,-9.88 182.177,-9.05067 C 181.887,-8.22267 181.452,-7.312 180.872,-6.31867 L 178.995,-3.11467 L 182.073,-3.11467 L 182.073,0 L 173.349,0 L 178.341,-8.52933 C 178.951,-9.55333 179.256,-10.4827 179.256,-11.324 C 179.256,-11.744 179.167,-12.088 178.983,-12.3533 C 178.799,-12.6213 178.571,-12.7533 178.295,-12.7533 C 177.861,-12.7533 177.576,-12.58 177.443,-12.2333 C 177.308,-11.8867 177.241,-11.2027 177.241,-10.1787 Z "/>
		<path id="dp_path021" fill="white" fill-rule="evenodd" stroke="none" stroke-width="0" d="M 188.555,-15.308 L 192.195,-15.308 C 190.889,-12.6053 190.004,-10.6867 189.54,-9.54933 C 189.637,-9.55733 189.801,-9.58667 190.029,-9.64133 C 190.289,-9.68533 190.512,-9.70933 190.695,-9.70933 C 191.931,-9.70933 192.896,-9.29333 193.592,-8.46133 C 194.285,-7.628 194.633,-6.46533 194.633,-4.96933 C 194.633,-3.328 194.183,-2.02267 193.283,-1.05333 C 192.383,-0.084 191.175,0.4 189.664,0.4 C 188.244,0.4 187.093,-0.0826667 186.205,-1.048 C 185.321,-2.012 184.879,-3.27467 184.879,-4.832 C 184.879,-6.74667 185.752,-9.51467 187.501,-13.1333 Z M 189.756,-2.59867 C 190.229,-2.59867 190.612,-2.804 190.907,-3.212 C 191.2,-3.62133 191.347,-4.152 191.347,-4.80933 C 191.347,-5.44133 191.195,-5.97467 190.889,-6.40533 C 190.585,-6.83733 190.213,-7.052 189.78,-7.052 C 189.32,-7.052 188.945,-6.83867 188.651,-6.41067 C 188.357,-5.98533 188.211,-5.43467 188.211,-4.764 C 188.211,-4.11467 188.349,-3.592 188.629,-3.19467 C 188.907,-2.79867 189.276,-2.59867 189.733,-2.59867 Z "/>
		<path id="dp_path022" fill="white" fill-rule="evenodd" stroke="none" stroke-width="0" d="M 213.553,0 L 209.945,0 L 209.361,-2.55333 L 205.697,-2.55333 L 205.091,0 L 201.553,0 L 205.607,-15.284 L 209.499,-15.284 Z M 208.697,-5.30133 C 208.18,-7.576 207.789,-9.73867 207.531,-11.792 L 207.484,-11.792 C 207.211,-9.67867 206.824,-7.51467 206.327,-5.30133 Z "/>
		<path id="dp_path023" fill="white" fill-rule="evenodd" stroke="none" stroke-width="0" d="M 225.812,-8.564 L 225.812,-5.99867 C 225.812,-4.016 225.333,-2.456 224.373,-1.32267 C 223.416,-0.189333 222.105,0.377333 220.443,0.377333 C 218.58,0.377333 217.14,-0.322667 216.127,-1.724 C 215.109,-3.124 214.601,-5.12133 214.601,-7.716 C 214.601,-10.3347 215.108,-12.3213 216.12,-13.676 C 217.131,-15.0307 218.609,-15.708 220.556,-15.708 C 222.74,-15.708 224.319,-14.544 225.296,-12.216 L 221.988,-10.8547 C 221.712,-11.3427 221.456,-11.6987 221.22,-11.9253 C 220.984,-12.1493 220.659,-12.2613 220.247,-12.2613 C 219.545,-12.2613 219.047,-11.8933 218.755,-11.1573 C 218.459,-10.4213 218.312,-9.22933 218.312,-7.58 C 218.312,-6.04533 218.479,-4.91867 218.811,-4.19733 C 219.143,-3.47467 219.671,-3.11467 220.396,-3.11467 C 221.556,-3.11467 222.156,-3.94267 222.193,-5.59867 L 220.579,-5.59867 L 220.579,-8.564 Z "/>
		<path id="dp_path024" fill="white" fill-rule="evenodd" stroke="none" stroke-width="0" d="M 229.477,-15.284 L 233.863,-15.284 C 234.491,-11.988 234.983,-9.152 235.34,-6.77867 L 235.719,-9.148 C 235.872,-10.0707 236.036,-10.972 236.212,-11.8507 L 236.885,-15.284 L 241.363,-15.284 L 243.103,0 L 239.668,0 L 238.741,-10.5107 L 236.6,0 L 234.253,0 L 232.008,-10.5347 L 231.116,0 L 227.831,0 Z "/>
	</g>
</svg>