<?xml version="1.0" encoding="UTF-8" standalone="no"?>
<svg version="1.1" xmlns="http://www.w3.org/2000/svg" xmlns:xlink="http://www.w3.org/1999/xlink" width="281.6" height="50.56">
	<path id="dp_path001" transform="matrix(1,0,0,1,-208.48,-551.301)" fill="#8acb5e" fill-rule="evenodd" stroke="none" stroke-width="0" d="M 209.147,551.968 L 489.443,551.968 L 489.443,601.027 L 209.147,601.027 Z "/>
	<g id="dp_dp002" transform="matrix(1,0,0,1,10.5813,34.4507)">
		<path id="dp_path003" fill="white" fill-rule="evenodd" stroke="none" stroke-width="0" d="M 1.63733,-15.284 L 5.10533,-15.284 L 5.10533,-9.61733 L 8.18667,-9.61733 L 8.18667,-15.284 L 11.656,-15.284 L 11.656,0 L 8.18667,0 L 8.18667,-6.35467 L 5.10533,-6.35467 L 5.10533,0 L 1.63733,0 Z "/>
		<path id="dp_path004" fill="white" fill-rule="evenodd" stroke="none" stroke-width="0" d="M 19.5347,-3.21867 L 22.3387,-3.21867 C 21.8053,-0.852 20.4693,0.332 18.3307,0.332 C 16.9973,0.332 15.94,-0.176 15.16,-1.18933 C 14.3827,-2.20667 13.9933,-3.60667 13.9933,-5.39333 C 13.9933,-7.056 14.3827,-8.39067 15.16,-9.39467 C 15.94,-10.3973 16.9733,-10.9 18.2627,-10.9 C 19.0427,-10.9 19.7907,-10.6573 20.508,-10.172 C 21.2253,-9.688 21.7467,-9.04533 22.0747,-8.244 C 22.404,-7.44267 22.5867,-6.17867 22.6267,-4.45333 L 17.0733,-4.45333 C 17.1173,-2.88933 17.5533,-2.10667 18.3787,-2.10667 C 18.66,-2.10667 18.912,-2.20933 19.1347,-2.41467 C 19.3547,-2.62267 19.488,-2.88933 19.5347,-3.21867 Z M 17.1173,-6.26267 L 19.5347,-6.26267 C 19.512,-7.00267 19.408,-7.55067 19.224,-7.90533 C 19.0427,-8.26133 18.752,-8.43733 18.3547,-8.43733 C 17.9133,-8.43733 17.5947,-8.268 17.4053,-7.924 C 17.2133,-7.58 17.1173,-7.02667 17.1173,-6.26267 Z "/>
		<path id="dp_path005" fill="white" fill-rule="evenodd" stroke="none" stroke-width="0" d="M 29.8373,0 L 29.8373,-1.38533 L 29.792,-1.38533 C 29.388,-0.789333 28.9947,-0.352 28.6187,-0.068 C 28.2413,0.213333 27.796,0.356 27.284,0.356 C 26.2853,0.356 25.488,-0.156 24.892,-1.18 C 24.296,-2.20267 23.9987,-3.592 23.9987,-5.34667 C 23.9987,-7.03467 24.3,-8.37733 24.904,-9.37733 C 25.5053,-10.3773 26.2987,-10.876 27.284,-10.876 C 27.8107,-10.876 28.256,-10.7453 28.624,-10.4813 C 28.9893,-10.22 29.372,-9.79733 29.7693,-9.21733 L 29.8133,-9.21733 L 29.8133,-10.5347 L 33.1453,-10.5347 L 33.1453,0 Z M 29.8373,-5.324 C 29.8373,-7.072 29.4093,-7.94533 28.556,-7.94533 C 27.692,-7.94533 27.2613,-7.072 27.2613,-5.324 C 27.2613,-3.508 27.708,-2.59867 28.6,-2.59867 C 29.4253,-2.59867 29.8373,-3.508 29.8373,-5.324 Z "/>
		<path id="dp_path006" fill="white" fill-rule="evenodd" stroke="none" stroke-width="0" d="M 35.752,-16.132 L 39.084,-16.132 L 39.084,0 L 35.752,0 Z "/>
		<path id="dp_path007" fill="white" fill-rule="evenodd" stroke="none" stroke-width="0" d="M 42.1387,-13.3387 L 45.4693,-13.3387 L 45.4693,-10.5347 L 46.7653,-10.5347 L 46.7653,-7.76267 L 45.448,-7.76267 L 45.448,0 L 42.1387,0 L 42.1387,-7.78533 L 40.88,-7.78533 L 40.88,-10.5347 L 42.1387,-10.5347 Z "/>
		<path id="dp_path008" fill="white" fill-rule="evenodd" stroke="none" stroke-width="0" d="M 48.4787,-16.132 L 51.8,-16.132 L 51.8,-9.17067 L 51.856,-9.17067 C 52.6733,-10.308 53.6147,-10.876 54.684,-10.876 C 55.448,-10.876 56.0427,-10.6253 56.464,-10.128 C 56.888,-9.628 57.1013,-8.92133 57.1013,-8.01467 L 57.1013,0 L 53.7693,0 L 53.7693,-6.42267 C 53.7693,-6.83467 53.6853,-7.15733 53.5213,-7.39067 C 53.3573,-7.62267 53.1307,-7.74 52.8413,-7.74 C 52.1453,-7.74 51.8,-7.27067 51.8,-6.33067 L 51.8,0 L 48.4787,0 Z "/>
		<path id="dp_path009" fill="white" fill-rule="evenodd" stroke="none" stroke-width="0" d="M 72.9373,0 L 72.3533,-0.824 C 71.2613,0.008 70.1507,0.424 69.0213,0.424 C 67.816,0.424 66.8027,0.0453333 65.9813,-0.709333 C 65.1613,-1.46533 64.7507,-2.40133 64.7507,-3.51467 C 64.7507,-4.356 64.9693,-5.06933 65.4027,-5.65733 C 65.8387,-6.24267 66.5147,-6.892 67.4293,-7.60267 C 66.712,-8.496 66.2387,-9.24 66.0107,-9.83467 C 65.7827,-10.4307 65.6667,-11.0307 65.6667,-11.632 C 65.6667,-12.8453 66.056,-13.828 66.8347,-14.5813 C 67.6133,-15.3333 68.6333,-15.708 69.8907,-15.708 C 71.06,-15.708 72.0627,-15.32 72.9027,-14.54 C 73.7427,-13.7627 74.1627,-12.8293 74.1627,-11.748 C 74.1627,-10.976 73.964,-10.2373 73.5667,-9.532 C 73.1707,-8.82667 72.5053,-8.072 71.5733,-7.27067 L 72.9373,-5.43733 L 74.344,-6.8 L 76.3373,-4.29333 L 74.816,-2.83867 L 76.8533,0 Z M 69.8,-9.70933 C 70.624,-10.4187 71.036,-11.06 71.036,-11.632 C 71.036,-11.9 70.9307,-12.1227 70.7213,-12.3027 C 70.5107,-12.4827 70.2427,-12.572 69.9147,-12.572 C 69.624,-12.572 69.372,-12.4627 69.1587,-12.2453 C 68.9453,-12.0267 68.8387,-11.7667 68.8387,-11.46 C 68.8387,-11.0187 69.1587,-10.4347 69.8,-9.70933 Z M 70.544,-3.308 L 69.1707,-5.20933 C 68.4293,-4.652 68.06,-4.12533 68.06,-3.63067 C 68.06,-3.35467 68.156,-3.132 68.352,-2.96 C 68.5467,-2.788 68.7933,-2.70267 69.0907,-2.70267 C 69.4947,-2.70267 69.9787,-2.904 70.544,-3.308 Z "/>
		<path id="dp_path010" fill="white" fill-rule="evenodd" stroke="none" stroke-width="0" d="M 84.2387,-0.286667 L 84.2387,-3.848 C 85.3373,-3.20667 86.2613,-2.88667 87.0093,-2.88667 C 87.4453,-2.88667 87.7867,-3.00533 88.0387,-3.24533 C 88.292,-3.48533 88.4187,-3.804 88.4187,-4.20133 C 88.4187,-4.508 88.3173,-4.79333 88.1133,-5.06133 C 87.912,-5.328 87.5627,-5.65333 87.0667,-6.03333 C 85.868,-6.95067 85.0013,-7.80267 84.4613,-8.59333 C 83.924,-9.38267 83.6547,-10.2627 83.6547,-11.232 C 83.6547,-12.552 84.0707,-13.6293 84.9027,-14.46 C 85.736,-15.292 86.8107,-15.708 88.1307,-15.708 C 89.108,-15.708 90.0773,-15.4987 91.0387,-15.0787 L 91.0387,-11.656 C 90.0093,-12.22 89.172,-12.5013 88.532,-12.5013 C 88.104,-12.5013 87.768,-12.3987 87.52,-12.1867 C 87.272,-11.9787 87.1467,-11.6907 87.1467,-11.324 C 87.1467,-10.6827 87.7227,-9.96133 88.876,-9.16 C 89.564,-8.68533 90.2587,-8.02133 90.964,-7.16133 C 91.672,-6.304 92.024,-5.30933 92.024,-4.18 C 92.024,-2.85867 91.5627,-1.764 90.6387,-0.898667 C 89.716,-0.0333333 88.544,0.4 87.1253,0.4 C 86.1533,0.4 85.192,0.172 84.2387,-0.286667 Z "/>
		<path id="dp_path011" fill="white" fill-rule="evenodd" stroke="none" stroke-width="0" d="M 99.3707,0 L 99.3707,-1.38533 L 99.3253,-1.38533 C 98.9213,-0.789333 98.528,-0.352 98.152,-0.068 C 97.7747,0.213333 97.3293,0.356 96.8173,0.356 C 95.8187,0.356 95.0213,-0.156 94.4253,-1.18 C 93.8293,-2.20267 93.532,-3.592 93.532,-5.34667 C 93.532,-7.03467 93.8333,-8.37733 94.4373,-9.37733 C 95.0387,-10.3773 95.832,-10.876 96.8173,-10.876 C 97.344,-10.876 97.7893,-10.7453 98.1573,-10.4813 C 98.5227,-10.22 98.9053,-9.79733 99.3027,-9.21733 L 99.3467,-9.21733 L 99.3467,-10.5347 L 102.679,-10.5347 L 102.679,0 Z M 99.3707,-5.324 C 99.3707,-7.072 98.9427,-7.94533 98.0893,-7.94533 C 97.2253,-7.94533 96.7947,-7.072 96.7947,-5.324 C 96.7947,-3.508 97.2413,-2.59867 98.1333,-2.59867 C 98.9587,-2.59867 99.3707,-3.508 99.3707,-5.324 Z "/>
		<path id="dp_path012" fill="white" fill-rule="evenodd" stroke="none" stroke-width="0" d="M 105.469,-10.5347 L 105.469,-12.972 C 105.469,-13.9573 105.788,-14.7293 106.425,-15.2907 C 107.063,-15.8507 107.951,-16.132 109.088,-16.132 L 110.415,-16.132 L 110.415,-12.8453 L 109.581,-12.8453 C 109.343,-12.8453 109.151,-12.76 109.003,-12.588 C 108.852,-12.4173 108.777,-12.1893 108.777,-11.908 L 108.777,-10.5347 L 110.415,-10.5347 L 110.415,-7.76267 L 108.777,-7.76267 L 108.777,0 L 105.469,0 L 105.469,-7.76267 L 104.301,-7.76267 L 104.301,-10.5347 Z "/>
		<path id="dp_path013" fill="white" fill-rule="evenodd" stroke="none" stroke-width="0" d="M 116.707,-3.21867 L 119.511,-3.21867 C 118.977,-0.852 117.641,0.332 115.503,0.332 C 114.169,0.332 113.112,-0.176 112.332,-1.18933 C 111.555,-2.20667 111.165,-3.60667 111.165,-5.39333 C 111.165,-7.056 111.555,-8.39067 112.332,-9.39467 C 113.112,-10.3973 114.145,-10.9 115.435,-10.9 C 116.215,-10.9 116.963,-10.6573 117.68,-10.172 C 118.397,-9.688 118.919,-9.04533 119.247,-8.244 C 119.576,-7.44267 119.759,-6.17867 119.799,-4.45333 L 114.245,-4.45333 C 114.289,-2.88933 114.725,-2.10667 115.551,-2.10667 C 115.832,-2.10667 116.084,-2.20933 116.307,-2.41467 C 116.527,-2.62267 116.66,-2.88933 116.707,-3.21867 Z M 114.289,-6.26267 L 116.707,-6.26267 C 116.684,-7.00267 116.58,-7.55067 116.396,-7.90533 C 116.215,-8.26133 115.924,-8.43733 115.527,-8.43733 C 115.085,-8.43733 114.767,-8.268 114.577,-7.924 C 114.385,-7.58 114.289,-7.02667 114.289,-6.26267 Z "/>
		<path id="dp_path014" fill="white" fill-rule="evenodd" stroke="none" stroke-width="0" d="M 122.177,-13.3387 L 125.508,-13.3387 L 125.508,-10.5347 L 126.804,-10.5347 L 126.804,-7.76267 L 125.487,-7.76267 L 125.487,0 L 122.177,0 L 122.177,-7.78533 L 120.919,-7.78533 L 120.919,-10.5347 L 122.177,-10.5347 Z "/>
		<path id="dp_path015" fill="white" fill-rule="evenodd" stroke="none" stroke-width="0" d="M 127.475,-10.5347 L 130.761,-10.5347 L 131.599,-7.796 C 131.888,-6.83467 132.14,-5.89333 132.352,-4.96933 L 132.411,-4.96933 C 132.585,-5.84667 132.732,-6.47733 132.845,-6.85867 L 133.957,-10.5347 L 137.288,-10.5347 L 132.8,4.34 L 129.48,4.34 L 130.831,-0.137333 Z "/>
		<path id="dp_path016" fill="white" fill-rule="evenodd" stroke="none" stroke-width="0" d="M 144.893,-15.284 L 149.187,-15.284 C 150.699,-15.284 151.912,-14.8547 152.827,-13.9907 C 153.743,-13.1293 154.203,-11.992 154.203,-10.5787 C 154.203,-9.09067 153.737,-7.92533 152.811,-7.08133 C 151.883,-6.23733 150.599,-5.81733 148.957,-5.81733 L 148.361,-5.81733 L 148.361,0 L 144.893,0 Z M 148.361,-12.3533 L 148.361,-8.748 C 149.141,-8.76133 149.716,-8.912 150.085,-9.19333 C 150.456,-9.47733 150.64,-9.92267 150.64,-10.5347 C 150.64,-11.1907 150.463,-11.6533 150.103,-11.9253 C 149.743,-12.1947 149.163,-12.34 148.361,-12.3533 Z "/>
		<path id="dp_path017" fill="white" fill-rule="evenodd" stroke="none" stroke-width="0" d="M 160.432,-10.9 C 161.949,-10.9 163.107,-10.3933 163.9,-9.38267 C 164.693,-8.37067 165.092,-6.96667 165.092,-5.164 C 165.092,-3.4 164.68,-2.036 163.855,-1.07067 C 163.031,-0.105333 161.889,0.377333 160.432,0.377333 C 159.035,0.377333 157.927,-0.114667 157.105,-1.1 C 156.285,-2.08267 155.875,-3.43867 155.875,-5.164 C 155.875,-6.96667 156.265,-8.37067 157.047,-9.38267 C 157.831,-10.3933 158.959,-10.9 160.432,-10.9 Z M 160.455,-2.59867 C 160.889,-2.59867 161.215,-2.80267 161.432,-3.20667 C 161.651,-3.61067 161.76,-4.30133 161.76,-5.27733 C 161.76,-6.24667 161.653,-6.92667 161.437,-7.316 C 161.225,-7.704 160.904,-7.9 160.476,-7.9 C 160.056,-7.9 159.736,-7.71067 159.515,-7.33333 C 159.295,-6.956 159.183,-6.26267 159.183,-5.256 C 159.183,-3.484 159.607,-2.59867 160.455,-2.59867 Z "/>
		<path id="dp_path018" fill="white" fill-rule="evenodd" stroke="none" stroke-width="0" d="M 167.128,-16.132 L 170.46,-16.132 L 170.46,0 L 167.128,0 Z "/>
		<path id="dp_path019" fill="white" fill-rule="evenodd" stroke="none" stroke-width="0" d="M 173.103,-13.6933 C 173.103,-14.1827 173.275,-14.5987 173.617,-14.94 C 173.961,-15.284 174.375,-15.456 174.855,-15.456 C 175.344,-15.456 175.76,-15.284 176.104,-14.94 C 176.445,-14.5987 176.617,-14.1827 176.617,-13.6933 C 176.617,-13.2133 176.445,-12.7987 176.104,-12.4507 C 175.76,-12.1027 175.344,-11.9293 174.855,-11.9293 C 174.381,-11.9293 173.972,-12.1027 173.624,-12.4507 C 173.276,-12.7987 173.103,-13.2133 173.103,-13.6933 Z M 173.193,-10.5347 L 176.525,-10.5347 L 176.525,0 L 173.193,0 Z "/>
		<path id="dp_path020" fill="white" fill-rule="evenodd" stroke="none" stroke-width="0" d="M 184.881,-3.21867 L 184.881,-0.469333 C 184.088,0.064 183.291,0.332 182.489,0.332 C 181.305,0.332 180.357,-0.181333 179.644,-1.208 C 178.929,-2.236 178.573,-3.61467 178.573,-5.34667 C 178.573,-6.988 178.939,-8.324 179.672,-9.35333 C 180.404,-10.384 181.352,-10.9 182.511,-10.9 C 183.32,-10.9 184.119,-10.6147 184.904,-10.0413 L 184.904,-7.316 C 184.455,-7.552 184.048,-7.672 183.691,-7.672 C 183.156,-7.672 182.725,-7.45467 182.397,-7.024 C 182.069,-6.59333 181.905,-6.01867 181.905,-5.30133 C 181.905,-4.54533 182.065,-3.94933 182.385,-3.51467 C 182.707,-3.08 183.141,-2.86267 183.691,-2.86267 C 184.027,-2.86267 184.424,-2.98 184.881,-3.21867 Z "/>
		<path id="dp_path021" fill="white" fill-rule="evenodd" stroke="none" stroke-width="0" d="M 185.816,-10.5347 L 189.103,-10.5347 L 189.94,-7.796 C 190.229,-6.83467 190.481,-5.89333 190.693,-4.96933 L 190.752,-4.96933 C 190.927,-5.84667 191.073,-6.47733 191.187,-6.85867 L 192.299,-10.5347 L 195.629,-10.5347 L 191.141,4.34 L 187.821,4.34 L 189.172,-0.137333 Z "/>
	</g>
</svg>