<?xml version="1.0" encoding="UTF-8" standalone="no"?>
<svg version="1.1" xmlns="http://www.w3.org/2000/svg" xmlns:xlink="http://www.w3.org/1999/xlink" width="281.6" height="50.56">
	<path id="dp_path001" transform="matrix(1,0,0,1,-207.813,-326.968)" fill="#8acb5e" fill-rule="evenodd" stroke="none" stroke-width="0" d="M 208.48,327.635 L 488.776,327.635 L 488.776,376.693 L 208.48,376.693 Z "/>
	<g id="dp_dp002" transform="matrix(1,0,0,1,11.248,34.4507)">
		<path id="dp_path003" fill="white" fill-rule="evenodd" stroke="none" stroke-width="0" d="M 1.76267,-15.284 L 5.23333,-15.284 L 5.23333,0 L 1.76267,0 Z "/>
		<path id="dp_path004" fill="white" fill-rule="evenodd" stroke="none" stroke-width="0" d="M 8.64,-15.284 L 15.6587,-15.284 L 15.6587,-12.0333 L 12.108,-12.0333 L 12.108,-9.21733 L 15.1893,-9.21733 L 15.1893,-6.04533 L 12.108,-6.04533 L 12.108,-3.26267 L 15.68,-3.26267 L 15.68,0 L 8.64,0 Z "/>
		<path id="dp_path005" fill="white" fill-rule="evenodd" stroke="none" stroke-width="0" d="M 18.3933,-15.284 L 21.8613,-15.284 L 21.8613,-3.53867 L 24.6107,-3.53867 L 24.6107,0 L 18.3933,0 Z "/>
		<path id="dp_path006" fill="white" fill-rule="evenodd" stroke="none" stroke-width="0" d="M 32.7133,-15.284 L 36.7547,-15.284 C 38.388,-15.284 39.6773,-14.8667 40.6253,-14.0253 C 41.5707,-13.1853 42.044,-12.044 42.044,-10.6027 C 42.044,-9.86133 41.864,-9.14667 41.5067,-8.45467 C 41.1467,-7.76533 40.6253,-7.244 39.9373,-6.892 L 42.708,0 L 39.044,0 L 36.24,-6.96267 L 36.1813,-6.96267 L 36.1813,0 L 32.7133,0 Z M 36.1813,-12.332 L 36.1813,-8.70133 C 37.716,-8.732 38.484,-9.26933 38.484,-10.3147 C 38.484,-11.0267 38.3053,-11.532 37.952,-11.8387 C 37.596,-12.144 37.0067,-12.308 36.1813,-12.332 Z "/>
		<path id="dp_path007" fill="white" fill-rule="evenodd" stroke="none" stroke-width="0" d="M 44.288,-13.6933 C 44.288,-14.1827 44.46,-14.5987 44.8027,-14.94 C 45.1467,-15.284 45.56,-15.456 46.04,-15.456 C 46.5293,-15.456 46.9453,-15.284 47.2893,-14.94 C 47.6307,-14.5987 47.8027,-14.1827 47.8027,-13.6933 C 47.8027,-13.2133 47.6307,-12.7987 47.2893,-12.4507 C 46.9453,-12.1027 46.5293,-11.9293 46.04,-11.9293 C 45.5667,-11.9293 45.1573,-12.1027 44.8093,-12.4507 C 44.4613,-12.7987 44.288,-13.2133 44.288,-13.6933 Z M 44.3787,-10.5347 L 47.7107,-10.5347 L 47.7107,0 L 44.3787,0 Z "/>
		<path id="dp_path008" fill="white" fill-rule="evenodd" stroke="none" stroke-width="0" d="M 50.744,-3.4 C 51.8813,-2.72933 52.7013,-2.39333 53.204,-2.39333 C 53.4787,-2.39333 53.708,-2.464 53.892,-2.60533 C 54.0747,-2.74533 54.1667,-2.916 54.1667,-3.11467 C 54.1667,-3.328 54.0907,-3.484 53.936,-3.584 C 53.784,-3.68267 53.212,-3.95067 52.2187,-4.38533 C 51.4253,-4.736 50.8533,-5.15067 50.5027,-5.628 C 50.152,-6.104 49.976,-6.69867 49.976,-7.408 C 49.976,-8.424 50.3253,-9.25867 51.0227,-9.91467 C 51.7227,-10.5707 52.6133,-10.9 53.696,-10.9 C 54.7493,-10.9 56.0413,-10.4787 57.5667,-9.64133 L 56.2853,-7.27067 C 55.292,-7.88 54.48,-8.18667 53.8467,-8.18667 C 53.296,-8.18667 53.0213,-7.964 53.0213,-7.52267 C 53.0213,-7.308 53.1213,-7.124 53.3253,-6.96667 C 53.5267,-6.80933 53.896,-6.63733 54.4293,-6.44667 C 55.4293,-6.09467 56.156,-5.67467 56.612,-5.18533 C 57.0653,-4.69733 57.292,-4.08 57.292,-3.332 C 57.292,-2.26267 56.9333,-1.38533 56.2147,-0.7 C 55.4973,-0.012 54.5827,0.332 53.468,0.332 C 52.2613,0.332 50.972,-0.092 49.5987,-0.937333 Z "/>
		<path id="dp_path009" fill="white" fill-rule="evenodd" stroke="none" stroke-width="0" d="M 59.3573,-16.132 L 62.6787,-16.132 L 62.6787,-6.77867 L 62.7347,-6.77867 L 65.0013,-10.5347 L 68.9867,-10.5347 L 65.6093,-5.81733 L 69.0547,0 L 65.2187,0 L 62.7347,-5.14133 L 62.6787,-5.14133 L 62.6787,0 L 59.3573,0 Z "/>
		<path id="dp_path010" fill="white" fill-rule="evenodd" stroke="none" stroke-width="0" d="M 87.428,0 L 83.82,0 L 83.236,-2.55333 L 79.572,-2.55333 L 78.9653,0 L 75.428,0 L 79.4813,-15.284 L 83.3733,-15.284 Z M 82.572,-5.30133 C 82.0547,-7.576 81.664,-9.73867 81.4053,-11.792 L 81.3587,-11.792 C 81.0853,-9.67867 80.6987,-7.51467 80.2013,-5.30133 Z "/>
		<path id="dp_path011" fill="white" fill-rule="evenodd" stroke="none" stroke-width="0" d="M 89.2,-3.4 C 90.3373,-2.72933 91.1573,-2.39333 91.66,-2.39333 C 91.9347,-2.39333 92.164,-2.464 92.348,-2.60533 C 92.5307,-2.74533 92.6227,-2.916 92.6227,-3.11467 C 92.6227,-3.328 92.5467,-3.484 92.392,-3.584 C 92.24,-3.68267 91.668,-3.95067 90.6747,-4.38533 C 89.8813,-4.736 89.3093,-5.15067 88.9587,-5.628 C 88.608,-6.104 88.432,-6.69867 88.432,-7.408 C 88.432,-8.424 88.7813,-9.25867 89.4787,-9.91467 C 90.1787,-10.5707 91.0693,-10.9 92.152,-10.9 C 93.2053,-10.9 94.4973,-10.4787 96.0227,-9.64133 L 94.7413,-7.27067 C 93.748,-7.88 92.936,-8.18667 92.3027,-8.18667 C 91.752,-8.18667 91.4773,-7.964 91.4773,-7.52267 C 91.4773,-7.308 91.5773,-7.124 91.7813,-6.96667 C 91.9827,-6.80933 92.352,-6.63733 92.8853,-6.44667 C 93.8853,-6.09467 94.612,-5.67467 95.068,-5.18533 C 95.5213,-4.69733 95.748,-4.08 95.748,-3.332 C 95.748,-2.26267 95.3893,-1.38533 94.6707,-0.7 C 93.9533,-0.012 93.0387,0.332 91.924,0.332 C 90.7173,0.332 89.428,-0.092 88.0547,-0.937333 Z "/>
		<path id="dp_path012" fill="white" fill-rule="evenodd" stroke="none" stroke-width="0" d="M 98.204,-3.4 C 99.3413,-2.72933 100.161,-2.39333 100.664,-2.39333 C 100.939,-2.39333 101.168,-2.464 101.352,-2.60533 C 101.535,-2.74533 101.627,-2.916 101.627,-3.11467 C 101.627,-3.328 101.551,-3.484 101.396,-3.584 C 101.244,-3.68267 100.672,-3.95067 99.6787,-4.38533 C 98.8853,-4.736 98.3133,-5.15067 97.9627,-5.628 C 97.612,-6.104 97.436,-6.69867 97.436,-7.408 C 97.436,-8.424 97.7853,-9.25867 98.4827,-9.91467 C 99.1827,-10.5707 100.073,-10.9 101.156,-10.9 C 102.209,-10.9 103.501,-10.4787 105.027,-9.64133 L 103.745,-7.27067 C 102.752,-7.88 101.94,-8.18667 101.307,-8.18667 C 100.756,-8.18667 100.481,-7.964 100.481,-7.52267 C 100.481,-7.308 100.581,-7.124 100.785,-6.96667 C 100.987,-6.80933 101.356,-6.63733 101.889,-6.44667 C 102.889,-6.09467 103.616,-5.67467 104.072,-5.18533 C 104.525,-4.69733 104.752,-4.08 104.752,-3.332 C 104.752,-2.26267 104.393,-1.38533 103.675,-0.7 C 102.957,-0.012 102.043,0.332 100.928,0.332 C 99.7213,0.332 98.432,-0.092 97.0587,-0.937333 Z "/>
		<path id="dp_path013" fill="white" fill-rule="evenodd" stroke="none" stroke-width="0" d="M 111.764,-3.21867 L 114.568,-3.21867 C 114.035,-0.852 112.699,0.332 110.56,0.332 C 109.227,0.332 108.169,-0.176 107.389,-1.18933 C 106.612,-2.20667 106.223,-3.60667 106.223,-5.39333 C 106.223,-7.056 106.612,-8.39067 107.389,-9.39467 C 108.169,-10.3973 109.203,-10.9 110.492,-10.9 C 111.272,-10.9 112.02,-10.6573 112.737,-10.172 C 113.455,-9.688 113.976,-9.04533 114.304,-8.244 C 114.633,-7.44267 114.816,-6.17867 114.856,-4.45333 L 109.303,-4.45333 C 109.347,-2.88933 109.783,-2.10667 110.608,-2.10667 C 110.889,-2.10667 111.141,-2.20933 111.364,-2.41467 C 111.584,-2.62267 111.717,-2.88933 111.764,-3.21867 Z M 109.347,-6.26267 L 111.764,-6.26267 C 111.741,-7.00267 111.637,-7.55067 111.453,-7.90533 C 111.272,-8.26133 110.981,-8.43733 110.584,-8.43733 C 110.143,-8.43733 109.824,-8.268 109.635,-7.924 C 109.443,-7.58 109.347,-7.02667 109.347,-6.26267 Z "/>
		<path id="dp_path014" fill="white" fill-rule="evenodd" stroke="none" stroke-width="0" d="M 117.213,-3.4 C 118.351,-2.72933 119.171,-2.39333 119.673,-2.39333 C 119.948,-2.39333 120.177,-2.464 120.361,-2.60533 C 120.544,-2.74533 120.636,-2.916 120.636,-3.11467 C 120.636,-3.328 120.56,-3.484 120.405,-3.584 C 120.253,-3.68267 119.681,-3.95067 118.688,-4.38533 C 117.895,-4.736 117.323,-5.15067 116.972,-5.628 C 116.621,-6.104 116.445,-6.69867 116.445,-7.408 C 116.445,-8.424 116.795,-9.25867 117.492,-9.91467 C 118.192,-10.5707 119.083,-10.9 120.165,-10.9 C 121.219,-10.9 122.511,-10.4787 124.036,-9.64133 L 122.755,-7.27067 C 121.761,-7.88 120.949,-8.18667 120.316,-8.18667 C 119.765,-8.18667 119.491,-7.964 119.491,-7.52267 C 119.491,-7.308 119.591,-7.124 119.795,-6.96667 C 119.996,-6.80933 120.365,-6.63733 120.899,-6.44667 C 121.899,-6.09467 122.625,-5.67467 123.081,-5.18533 C 123.535,-4.69733 123.761,-4.08 123.761,-3.332 C 123.761,-2.26267 123.403,-1.38533 122.684,-0.7 C 121.967,-0.012 121.052,0.332 119.937,0.332 C 118.731,0.332 117.441,-0.092 116.068,-0.937333 Z "/>
		<path id="dp_path015" fill="white" fill-rule="evenodd" stroke="none" stroke-width="0" d="M 126.217,-3.4 C 127.355,-2.72933 128.175,-2.39333 128.677,-2.39333 C 128.952,-2.39333 129.181,-2.464 129.365,-2.60533 C 129.548,-2.74533 129.64,-2.916 129.64,-3.11467 C 129.64,-3.328 129.564,-3.484 129.409,-3.584 C 129.257,-3.68267 128.685,-3.95067 127.692,-4.38533 C 126.899,-4.736 126.327,-5.15067 125.976,-5.628 C 125.625,-6.104 125.449,-6.69867 125.449,-7.408 C 125.449,-8.424 125.799,-9.25867 126.496,-9.91467 C 127.196,-10.5707 128.087,-10.9 129.169,-10.9 C 130.223,-10.9 131.515,-10.4787 133.04,-9.64133 L 131.759,-7.27067 C 130.765,-7.88 129.953,-8.18667 129.32,-8.18667 C 128.769,-8.18667 128.495,-7.964 128.495,-7.52267 C 128.495,-7.308 128.595,-7.124 128.799,-6.96667 C 129,-6.80933 129.369,-6.63733 129.903,-6.44667 C 130.903,-6.09467 131.629,-5.67467 132.085,-5.18533 C 132.539,-4.69733 132.765,-4.08 132.765,-3.332 C 132.765,-2.26267 132.407,-1.38533 131.688,-0.7 C 130.971,-0.012 130.056,0.332 128.941,0.332 C 127.735,0.332 126.445,-0.092 125.072,-0.937333 Z "/>
		<path id="dp_path016" fill="white" fill-rule="evenodd" stroke="none" stroke-width="0" d="M 138.152,-10.5347 L 138.152,-9.24 C 139.097,-10.3467 140.059,-10.9 141.036,-10.9 C 142.212,-10.9 142.971,-10.2933 143.315,-9.08 C 143.849,-9.71333 144.348,-10.1747 144.809,-10.464 C 145.271,-10.7547 145.812,-10.9 146.429,-10.9 C 147.979,-10.9 148.752,-9.81467 148.752,-7.648 L 148.752,0 L 145.421,0 L 145.421,-6.21733 C 145.421,-7.232 145.092,-7.74 144.436,-7.74 C 143.765,-7.74 143.429,-7.24 143.429,-6.23867 L 143.429,0 L 140.099,0 L 140.099,-6.4 C 140.099,-6.79067 140.008,-7.11067 139.828,-7.36267 C 139.648,-7.61333 139.419,-7.74 139.137,-7.74 C 138.837,-7.74 138.6,-7.61733 138.42,-7.372 C 138.241,-7.128 138.152,-6.79733 138.152,-6.37733 L 138.152,0 L 134.831,0 L 134.831,-10.5347 Z "/>
		<path id="dp_path017" fill="white" fill-rule="evenodd" stroke="none" stroke-width="0" d="M 156.16,-3.21867 L 158.964,-3.21867 C 158.431,-0.852 157.095,0.332 154.956,0.332 C 153.623,0.332 152.565,-0.176 151.785,-1.18933 C 151.008,-2.20667 150.619,-3.60667 150.619,-5.39333 C 150.619,-7.056 151.008,-8.39067 151.785,-9.39467 C 152.565,-10.3973 153.599,-10.9 154.888,-10.9 C 155.668,-10.9 156.416,-10.6573 157.133,-10.172 C 157.851,-9.688 158.372,-9.04533 158.7,-8.244 C 159.029,-7.44267 159.212,-6.17867 159.252,-4.45333 L 153.699,-4.45333 C 153.743,-2.88933 154.179,-2.10667 155.004,-2.10667 C 155.285,-2.10667 155.537,-2.20933 155.76,-2.41467 C 155.98,-2.62267 156.113,-2.88933 156.16,-3.21867 Z M 153.743,-6.26267 L 156.16,-6.26267 C 156.137,-7.00267 156.033,-7.55067 155.849,-7.90533 C 155.668,-8.26133 155.377,-8.43733 154.98,-8.43733 C 154.539,-8.43733 154.22,-8.268 154.031,-7.924 C 153.839,-7.58 153.743,-7.02667 153.743,-6.26267 Z "/>
		<path id="dp_path018" fill="white" fill-rule="evenodd" stroke="none" stroke-width="0" d="M 164.54,-10.5347 L 164.54,-9.10133 L 164.596,-9.10133 C 165.375,-10.2853 166.325,-10.876 167.448,-10.876 C 168.18,-10.876 168.763,-10.632 169.192,-10.1427 C 169.624,-9.65467 169.841,-8.996 169.841,-8.164 L 169.841,0 L 166.509,0 L 166.509,-6.49067 C 166.509,-6.85067 166.425,-7.144 166.257,-7.372 C 166.089,-7.60267 165.871,-7.716 165.605,-7.716 C 164.893,-7.716 164.54,-7.27067 164.54,-6.37733 L 164.54,0 L 161.219,0 L 161.219,-10.5347 Z "/>
		<path id="dp_path019" fill="white" fill-rule="evenodd" stroke="none" stroke-width="0" d="M 172.699,-13.3387 L 176.029,-13.3387 L 176.029,-10.5347 L 177.325,-10.5347 L 177.325,-7.76267 L 176.008,-7.76267 L 176.008,0 L 172.699,0 L 172.699,-7.78533 L 171.44,-7.78533 L 171.44,-10.5347 L 172.699,-10.5347 Z "/>
		<path id="dp_path020" fill="white" fill-rule="evenodd" stroke="none" stroke-width="0" d="M 188.307,-9.61733 L 184.953,-9.61733 C 184.953,-10.7627 185,-11.66 185.096,-12.308 C 185.192,-12.9573 185.389,-13.532 185.691,-14.032 C 185.993,-14.532 186.455,-14.932 187.076,-15.2333 C 187.699,-15.5347 188.437,-15.6853 189.292,-15.6853 C 190.704,-15.6853 191.789,-15.316 192.543,-14.5747 C 193.299,-13.8347 193.676,-12.7653 193.676,-11.368 C 193.676,-10.6507 193.532,-9.88 193.243,-9.05067 C 192.952,-8.22267 192.517,-7.312 191.937,-6.31867 L 190.06,-3.11467 L 193.139,-3.11467 L 193.139,0 L 184.415,0 L 189.407,-8.52933 C 190.016,-9.55333 190.321,-10.4827 190.321,-11.324 C 190.321,-11.744 190.232,-12.088 190.048,-12.3533 C 189.864,-12.6213 189.636,-12.7533 189.36,-12.7533 C 188.927,-12.7533 188.641,-12.58 188.508,-12.2333 C 188.373,-11.8867 188.307,-11.2027 188.307,-10.1787 Z "/>
		<path id="dp_path021" fill="white" fill-rule="evenodd" stroke="none" stroke-width="0" d="M 200.753,-15.6853 C 202.408,-15.6853 203.667,-15.0027 204.524,-13.6373 C 205.384,-12.2693 205.815,-10.2587 205.815,-7.60267 C 205.815,-5.01333 205.376,-3.03467 204.503,-1.66133 C 203.628,-0.286667 202.379,0.4 200.753,0.4 C 199.212,0.4 197.984,-0.242667 197.072,-1.528 C 196.16,-2.81333 195.704,-4.89333 195.704,-7.76267 C 195.704,-10.2813 196.141,-12.232 197.021,-13.6133 C 197.899,-14.9947 199.128,-15.6853 200.707,-15.6853 Z M 199.036,-7.78533 C 199.036,-4.52 199.6,-2.88667 200.729,-2.88667 C 201.34,-2.88667 201.781,-3.24533 202.052,-3.96667 C 202.323,-4.688 202.459,-5.83467 202.459,-7.408 C 202.459,-9.14133 202.323,-10.4013 202.052,-11.192 C 201.781,-11.9813 201.333,-12.376 200.707,-12.376 C 199.592,-12.376 199.036,-10.8467 199.036,-7.78533 Z "/>
		<path id="dp_path022" fill="white" fill-rule="evenodd" stroke="none" stroke-width="0" d="M 211.319,-9.61733 L 207.965,-9.61733 C 207.965,-10.7627 208.012,-11.66 208.108,-12.308 C 208.204,-12.9573 208.401,-13.532 208.703,-14.032 C 209.005,-14.532 209.467,-14.932 210.088,-15.2333 C 210.711,-15.5347 211.449,-15.6853 212.304,-15.6853 C 213.716,-15.6853 214.801,-15.316 215.555,-14.5747 C 216.311,-13.8347 216.688,-12.7653 216.688,-11.368 C 216.688,-10.6507 216.544,-9.88 216.255,-9.05067 C 215.964,-8.22267 215.529,-7.312 214.949,-6.31867 L 213.072,-3.11467 L 216.151,-3.11467 L 216.151,0 L 207.427,0 L 212.419,-8.52933 C 213.028,-9.55333 213.333,-10.4827 213.333,-11.324 C 213.333,-11.744 213.244,-12.088 213.06,-12.3533 C 212.876,-12.6213 212.648,-12.7533 212.372,-12.7533 C 211.939,-12.7533 211.653,-12.58 211.52,-12.2333 C 211.385,-11.8867 211.319,-11.2027 211.319,-10.1787 Z "/>
		<path id="dp_path023" fill="white" fill-rule="evenodd" stroke="none" stroke-width="0" d="M 222.632,-15.308 L 226.272,-15.308 C 224.967,-12.6053 224.081,-10.6867 223.617,-9.54933 C 223.715,-9.55733 223.879,-9.58667 224.107,-9.64133 C 224.367,-9.68533 224.589,-9.70933 224.772,-9.70933 C 226.008,-9.70933 226.973,-9.29333 227.669,-8.46133 C 228.363,-7.628 228.711,-6.46533 228.711,-4.96933 C 228.711,-3.328 228.26,-2.02267 227.36,-1.05333 C 226.46,-0.084 225.252,0.4 223.741,0.4 C 222.321,0.4 221.171,-0.0826667 220.283,-1.048 C 219.399,-2.012 218.956,-3.27467 218.956,-4.832 C 218.956,-6.74667 219.829,-9.51467 221.579,-13.1333 Z M 223.833,-2.59867 C 224.307,-2.59867 224.689,-2.804 224.984,-3.212 C 225.277,-3.62133 225.424,-4.152 225.424,-4.80933 C 225.424,-5.44133 225.272,-5.97467 224.967,-6.40533 C 224.663,-6.83733 224.291,-7.052 223.857,-7.052 C 223.397,-7.052 223.023,-6.83867 222.728,-6.41067 C 222.435,-5.98533 222.288,-5.43467 222.288,-4.764 C 222.288,-4.11467 222.427,-3.592 222.707,-3.19467 C 222.984,-2.79867 223.353,-2.59867 223.811,-2.59867 Z "/>
	</g>
</svg>